<svg xmlns="http://www.w3.org/2000/svg" width="100" height="100" id="liquid-abstract"><path d="M29.6 59.2c-2.2 1.4-4.8 1.9-7.3 1.5-4.5-.7-8.2-4.5-8.8-9.1-.6-4.6 1.9-9.2 6.2-11.1 4.6-2.1 10.1-.5 13 3.6 3.1 4.3 9 5.7 13.7 3.2 1.1-.6 2.1-1.4 3-2.4.8-.9 1.4-1.9 2.3-2.7 1.9-1.7 4.5-2.7 7.1-2.7 1.1 0 2.3.2 3.4.5 4.4 1.5 7.4 5.8 7.3 10.4-.1 4.6-3.4 8.8-7.9 10-2.4.7-5.1.4-7.3-.7-1.1-.5-2.2-1.3-3-2.2-.8-.8-1.4-1.9-2.3-2.7-3.8-3.7-9.9-4.1-14.1-.8-.9.8-1.6 1.7-2.4 2.6-.9 1.1-1.8 2-2.9 2.6zm9.9-17.7c2.5.4 5.2-.1 7.3-1.5 1.1-.7 2-1.5 2.8-2.5.7-.9 1.4-1.8 2.4-2.6 4.2-3.3 10.3-3 14.1.8.8.8 1.4 1.9 2.3 2.7.9.9 1.9 1.7 3 2.2 2.3 1.1 4.9 1.3 7.3.7 4.5-1.2 7.7-5.3 7.9-10 .1-4.6-2.9-8.9-7.3-10.4-1.1-.4-2.2-.5-3.4-.5-2.6 0-5.1 1-7.1 2.7-.9.8-1.5 1.8-2.3 2.7-.8 1-1.8 1.8-3 2.4-4.5 2.4-10.5 1-13.5-3.3-2.9-4.1-8.4-5.7-13-3.6-4.3 1.9-6.8 6.5-6.2 11.1.5 4.6 4.2 8.3 8.7 9.1zm39.8 17.4c-1.1-.4-2.2-.5-3.4-.5-2.6 0-5.1 1-7.1 2.7-.9.8-1.5 1.8-2.3 2.7-.8 1-1.8 1.8-3 2.4C59 68.7 53 67.3 50 62.9c-2.9-4.1-8.4-5.7-13-3.6-4.3 1.9-6.8 6.5-6.2 11.1.6 4.6 4.3 8.3 8.8 9.1 2.5.4 5.2-.1 7.3-1.5 1.1-.7 2-1.5 2.8-2.5.7-.9 1.4-1.8 2.4-2.6 4.2-3.3 10.3-3 14.1.8.8.8 1.4 1.9 2.3 2.7.9.9 1.9 1.7 3 2.2 2.3 1.1 4.9 1.3 7.3.7 4.5-1.2 7.7-5.3 7.9-10 0-4.6-3-8.9-7.4-10.4z"></path></svg>